<mxfile host="app.diagrams.net" modified="2023-04-05T15:33:31.564Z" agent="Mozilla/5.0 (Windows NT 10.0; Win64; x64) AppleWebKit/537.36 (KHTML, like Gecko) Chrome/111.0.0.0 Safari/537.36" etag="v3q3RvEGFTjEj8DoanEb" version="21.1.2" type="github">
  <diagram name="Página-1" id="o0qZVTrJO8NeAM04PV0n">
    <mxGraphModel dx="1114" dy="616" grid="1" gridSize="10" guides="1" tooltips="1" connect="1" arrows="1" fold="1" page="1" pageScale="1" pageWidth="827" pageHeight="1169" math="0" shadow="0">
      <root>
        <mxCell id="0" />
        <mxCell id="1" parent="0" />
        <mxCell id="d90fp0uA6kRgEtiLPxhZ-17" value="Cliente" style="swimlane;fontStyle=4;align=center;verticalAlign=top;childLayout=stackLayout;horizontal=1;startSize=30;horizontalStack=0;resizeParent=1;resizeParentMax=0;resizeLast=0;collapsible=0;marginBottom=0;html=1;whiteSpace=wrap;" vertex="1" parent="1">
          <mxGeometry x="40" y="230" width="140" height="118" as="geometry" />
        </mxCell>
        <mxCell id="d90fp0uA6kRgEtiLPxhZ-18" value="- nome: string&lt;br&gt;- email: string" style="html=1;strokeColor=none;fillColor=none;align=left;verticalAlign=middle;spacingLeft=4;spacingRight=4;rotatable=0;points=[[0,0.5],[1,0.5]];resizeWidth=1;whiteSpace=wrap;" vertex="1" parent="d90fp0uA6kRgEtiLPxhZ-17">
          <mxGeometry y="30" width="140" height="30" as="geometry" />
        </mxCell>
        <mxCell id="d90fp0uA6kRgEtiLPxhZ-19" value="" style="line;strokeWidth=1;fillColor=none;align=left;verticalAlign=middle;spacingTop=-1;spacingLeft=3;spacingRight=3;rotatable=0;labelPosition=right;points=[];portConstraint=eastwest;" vertex="1" parent="d90fp0uA6kRgEtiLPxhZ-17">
          <mxGeometry y="60" width="140" height="8" as="geometry" />
        </mxCell>
        <mxCell id="d90fp0uA6kRgEtiLPxhZ-21" value="" style="swimlane;fontStyle=1;align=center;verticalAlign=top;horizontal=1;startSize=0;collapsible=0;marginBottom=0;html=1;strokeColor=none;fillColor=none;whiteSpace=wrap;" vertex="1" parent="d90fp0uA6kRgEtiLPxhZ-17">
          <mxGeometry y="68" width="140" height="50" as="geometry" />
        </mxCell>
        <mxCell id="d90fp0uA6kRgEtiLPxhZ-22" value="+deposito()" style="html=1;align=center;verticalAlign=middle;rotatable=0;whiteSpace=wrap;" vertex="1" parent="d90fp0uA6kRgEtiLPxhZ-21">
          <mxGeometry width="80" height="30" relative="1" as="geometry">
            <mxPoint x="30" y="10" as="offset" />
          </mxGeometry>
        </mxCell>
        <mxCell id="d90fp0uA6kRgEtiLPxhZ-41" style="edgeStyle=orthogonalEdgeStyle;rounded=0;orthogonalLoop=1;jettySize=auto;html=1;exitX=0.5;exitY=0;exitDx=0;exitDy=0;entryX=0.5;entryY=1;entryDx=0;entryDy=0;" edge="1" parent="1" source="d90fp0uA6kRgEtiLPxhZ-24" target="d90fp0uA6kRgEtiLPxhZ-21">
          <mxGeometry relative="1" as="geometry" />
        </mxCell>
        <mxCell id="d90fp0uA6kRgEtiLPxhZ-42" value="N" style="edgeLabel;html=1;align=center;verticalAlign=middle;resizable=0;points=[];" vertex="1" connectable="0" parent="d90fp0uA6kRgEtiLPxhZ-41">
          <mxGeometry x="-0.8868" y="1" relative="1" as="geometry">
            <mxPoint as="offset" />
          </mxGeometry>
        </mxCell>
        <mxCell id="d90fp0uA6kRgEtiLPxhZ-24" value="Banco" style="swimlane;fontStyle=4;align=center;verticalAlign=top;childLayout=stackLayout;horizontal=1;startSize=30;horizontalStack=0;resizeParent=1;resizeParentMax=0;resizeLast=0;collapsible=0;marginBottom=0;html=1;whiteSpace=wrap;" vertex="1" parent="1">
          <mxGeometry x="160" y="440" width="140" height="118" as="geometry" />
        </mxCell>
        <mxCell id="d90fp0uA6kRgEtiLPxhZ-25" value="- nome: string&lt;br&gt;- endereco: string" style="html=1;strokeColor=none;fillColor=none;align=left;verticalAlign=middle;spacingLeft=4;spacingRight=4;rotatable=0;points=[[0,0.5],[1,0.5]];resizeWidth=1;whiteSpace=wrap;" vertex="1" parent="d90fp0uA6kRgEtiLPxhZ-24">
          <mxGeometry y="30" width="140" height="30" as="geometry" />
        </mxCell>
        <mxCell id="d90fp0uA6kRgEtiLPxhZ-26" value="" style="line;strokeWidth=1;fillColor=none;align=left;verticalAlign=middle;spacingTop=-1;spacingLeft=3;spacingRight=3;rotatable=0;labelPosition=right;points=[];portConstraint=eastwest;" vertex="1" parent="d90fp0uA6kRgEtiLPxhZ-24">
          <mxGeometry y="60" width="140" height="8" as="geometry" />
        </mxCell>
        <mxCell id="d90fp0uA6kRgEtiLPxhZ-27" value="" style="swimlane;fontStyle=1;align=center;verticalAlign=top;horizontal=1;startSize=0;collapsible=0;marginBottom=0;html=1;strokeColor=none;fillColor=none;whiteSpace=wrap;" vertex="1" parent="d90fp0uA6kRgEtiLPxhZ-24">
          <mxGeometry y="68" width="140" height="50" as="geometry" />
        </mxCell>
        <mxCell id="d90fp0uA6kRgEtiLPxhZ-28" value="+cadastrar()" style="html=1;align=center;verticalAlign=middle;rotatable=0;whiteSpace=wrap;" vertex="1" parent="d90fp0uA6kRgEtiLPxhZ-27">
          <mxGeometry width="80" height="30" relative="1" as="geometry">
            <mxPoint x="30" y="10" as="offset" />
          </mxGeometry>
        </mxCell>
        <mxCell id="d90fp0uA6kRgEtiLPxhZ-29" value="Conta Bancária" style="swimlane;fontStyle=4;align=center;verticalAlign=top;childLayout=stackLayout;horizontal=1;startSize=30;horizontalStack=0;resizeParent=1;resizeParentMax=0;resizeLast=0;collapsible=0;marginBottom=0;html=1;whiteSpace=wrap;" vertex="1" parent="1">
          <mxGeometry x="310" y="230" width="160" height="118" as="geometry" />
        </mxCell>
        <mxCell id="d90fp0uA6kRgEtiLPxhZ-30" value="- numero da conta: string&lt;br&gt;- agencia: string" style="html=1;strokeColor=none;fillColor=none;align=left;verticalAlign=middle;spacingLeft=4;spacingRight=4;rotatable=0;points=[[0,0.5],[1,0.5]];resizeWidth=1;whiteSpace=wrap;" vertex="1" parent="d90fp0uA6kRgEtiLPxhZ-29">
          <mxGeometry y="30" width="160" height="30" as="geometry" />
        </mxCell>
        <mxCell id="d90fp0uA6kRgEtiLPxhZ-31" value="" style="line;strokeWidth=1;fillColor=none;align=left;verticalAlign=middle;spacingTop=-1;spacingLeft=3;spacingRight=3;rotatable=0;labelPosition=right;points=[];portConstraint=eastwest;" vertex="1" parent="d90fp0uA6kRgEtiLPxhZ-29">
          <mxGeometry y="60" width="160" height="8" as="geometry" />
        </mxCell>
        <mxCell id="d90fp0uA6kRgEtiLPxhZ-32" value="" style="swimlane;fontStyle=1;align=center;verticalAlign=top;horizontal=1;startSize=0;collapsible=0;marginBottom=0;html=1;strokeColor=none;fillColor=none;whiteSpace=wrap;" vertex="1" parent="d90fp0uA6kRgEtiLPxhZ-29">
          <mxGeometry y="68" width="160" height="50" as="geometry" />
        </mxCell>
        <mxCell id="d90fp0uA6kRgEtiLPxhZ-33" value="+emprestimo()" style="html=1;align=center;verticalAlign=middle;rotatable=0;whiteSpace=wrap;" vertex="1" parent="d90fp0uA6kRgEtiLPxhZ-32">
          <mxGeometry width="80" height="30" relative="1" as="geometry">
            <mxPoint x="30" y="10" as="offset" />
          </mxGeometry>
        </mxCell>
        <mxCell id="d90fp0uA6kRgEtiLPxhZ-34" value="Transação" style="swimlane;fontStyle=4;align=center;verticalAlign=top;childLayout=stackLayout;horizontal=1;startSize=30;horizontalStack=0;resizeParent=1;resizeParentMax=0;resizeLast=0;collapsible=0;marginBottom=0;html=1;whiteSpace=wrap;" vertex="1" parent="1">
          <mxGeometry x="560" y="230" width="140" height="118" as="geometry" />
        </mxCell>
        <mxCell id="d90fp0uA6kRgEtiLPxhZ-35" value="- data: date&lt;br&gt;- valor: float" style="html=1;strokeColor=none;fillColor=none;align=left;verticalAlign=middle;spacingLeft=4;spacingRight=4;rotatable=0;points=[[0,0.5],[1,0.5]];resizeWidth=1;whiteSpace=wrap;" vertex="1" parent="d90fp0uA6kRgEtiLPxhZ-34">
          <mxGeometry y="30" width="140" height="30" as="geometry" />
        </mxCell>
        <mxCell id="d90fp0uA6kRgEtiLPxhZ-36" value="" style="line;strokeWidth=1;fillColor=none;align=left;verticalAlign=middle;spacingTop=-1;spacingLeft=3;spacingRight=3;rotatable=0;labelPosition=right;points=[];portConstraint=eastwest;" vertex="1" parent="d90fp0uA6kRgEtiLPxhZ-34">
          <mxGeometry y="60" width="140" height="8" as="geometry" />
        </mxCell>
        <mxCell id="d90fp0uA6kRgEtiLPxhZ-37" value="" style="swimlane;fontStyle=1;align=center;verticalAlign=top;horizontal=1;startSize=0;collapsible=0;marginBottom=0;html=1;strokeColor=none;fillColor=none;whiteSpace=wrap;" vertex="1" parent="d90fp0uA6kRgEtiLPxhZ-34">
          <mxGeometry y="68" width="140" height="50" as="geometry" />
        </mxCell>
        <mxCell id="d90fp0uA6kRgEtiLPxhZ-38" value="+enviar()" style="html=1;align=center;verticalAlign=middle;rotatable=0;whiteSpace=wrap;" vertex="1" parent="d90fp0uA6kRgEtiLPxhZ-37">
          <mxGeometry width="80" height="30" relative="1" as="geometry">
            <mxPoint x="30" y="10" as="offset" />
          </mxGeometry>
        </mxCell>
        <mxCell id="d90fp0uA6kRgEtiLPxhZ-46" value="N" style="text;html=1;align=center;verticalAlign=middle;resizable=0;points=[];autosize=1;strokeColor=none;fillColor=none;" vertex="1" parent="1">
          <mxGeometry x="105" y="345" width="30" height="30" as="geometry" />
        </mxCell>
        <mxCell id="d90fp0uA6kRgEtiLPxhZ-47" style="edgeStyle=orthogonalEdgeStyle;rounded=0;orthogonalLoop=1;jettySize=auto;html=1;exitX=1;exitY=0;exitDx=0;exitDy=0;entryX=0.5;entryY=1;entryDx=0;entryDy=0;" edge="1" parent="1" source="d90fp0uA6kRgEtiLPxhZ-27" target="d90fp0uA6kRgEtiLPxhZ-32">
          <mxGeometry relative="1" as="geometry" />
        </mxCell>
        <mxCell id="d90fp0uA6kRgEtiLPxhZ-48" value="1" style="text;html=1;align=center;verticalAlign=middle;resizable=0;points=[];autosize=1;strokeColor=none;fillColor=none;" vertex="1" parent="1">
          <mxGeometry x="295" y="425" width="30" height="30" as="geometry" />
        </mxCell>
        <mxCell id="d90fp0uA6kRgEtiLPxhZ-49" value="N" style="text;html=1;align=center;verticalAlign=middle;resizable=0;points=[];autosize=1;strokeColor=none;fillColor=none;" vertex="1" parent="1">
          <mxGeometry x="395" y="345" width="30" height="30" as="geometry" />
        </mxCell>
        <mxCell id="d90fp0uA6kRgEtiLPxhZ-50" style="edgeStyle=orthogonalEdgeStyle;rounded=0;orthogonalLoop=1;jettySize=auto;html=1;exitX=0;exitY=0;exitDx=0;exitDy=0;entryX=0.994;entryY=1.067;entryDx=0;entryDy=0;entryPerimeter=0;" edge="1" parent="1" source="d90fp0uA6kRgEtiLPxhZ-37" target="d90fp0uA6kRgEtiLPxhZ-30">
          <mxGeometry relative="1" as="geometry" />
        </mxCell>
        <mxCell id="d90fp0uA6kRgEtiLPxhZ-51" value="N" style="text;html=1;align=center;verticalAlign=middle;resizable=0;points=[];autosize=1;strokeColor=none;fillColor=none;" vertex="1" parent="1">
          <mxGeometry x="535" y="275" width="30" height="30" as="geometry" />
        </mxCell>
        <mxCell id="d90fp0uA6kRgEtiLPxhZ-52" value="1" style="text;html=1;align=center;verticalAlign=middle;resizable=0;points=[];autosize=1;strokeColor=none;fillColor=none;" vertex="1" parent="1">
          <mxGeometry x="465" y="285" width="30" height="30" as="geometry" />
        </mxCell>
      </root>
    </mxGraphModel>
  </diagram>
</mxfile>
